<?xml version="1.0" encoding="UTF-8" standalone="no"?>
<!-- Created with Inkscape (http://www.inkscape.org/) -->

<svg
   width="58.472916mm"
   height="56.356251mm"
   viewBox="0 0 58.472916 56.356251"
   version="1.1"
   id="svg1"
   xml:space="preserve"
   inkscape:version="1.4 (86a8ad7, 2024-10-11)"
   sodipodi:docname="disegno.svg"
   xmlns:inkscape="http://www.inkscape.org/namespaces/inkscape"
   xmlns:sodipodi="http://sodipodi.sourceforge.net/DTD/sodipodi-0.dtd"
   xmlns:xlink="http://www.w3.org/1999/xlink"
   xmlns="http://www.w3.org/2000/svg"
   xmlns:svg="http://www.w3.org/2000/svg"><sodipodi:namedview
     id="namedview1"
     pagecolor="#ffffff"
     bordercolor="#666666"
     borderopacity="1.0"
     inkscape:showpageshadow="2"
     inkscape:pageopacity="0.0"
     inkscape:pagecheckerboard="0"
     inkscape:deskcolor="#d1d1d1"
     inkscape:document-units="mm"
     inkscape:zoom="3.0467172"
     inkscape:cx="284.89681"
     inkscape:cy="491.18442"
     inkscape:window-width="2486"
     inkscape:window-height="1057"
     inkscape:window-x="66"
     inkscape:window-y="-8"
     inkscape:window-maximized="1"
     inkscape:current-layer="layer1"><inkscape:page
       x="0"
       y="0"
       width="58.472916"
       height="56.356251"
       id="page2"
       margin="0"
       bleed="0" /></sodipodi:namedview><defs
     id="defs1"><pattern
       inkscape:collect="always"
       xlink:href="#grid"
       id="pattern1"
       patternTransform="matrix(0.26458333,0,0,0.26458333,38.89375,95.514584)" /><pattern
       id="grid"
       width="20"
       height="20"
       patternUnits="userSpaceOnUse"><path
         d="M 20 0 L 0 0 0 20"
         fill="none"
         stroke="#E3E8F0"
         stroke-width="0.5"
         id="path1" /></pattern></defs><g
     inkscape:label="Livello 1"
     inkscape:groupmode="layer"
     id="layer1"
     transform="translate(-41.407292,-98.028128)"><g
       id="g1"><rect
         x="41.539585"
         y="98.160416"
         width="58.208332"
         height="56.091667"
         rx="1.5875"
         fill="#f5f7fa"
         stroke="#d0d8e8"
         stroke-width="0.264583"
         id="rect1" /><rect
         x="41.539585"
         y="98.160416"
         width="58.208332"
         height="56.091667"
         rx="1.5875"
         fill="url(#grid)"
         id="rect2"
         style="fill:url(#pattern1);stroke-width:0.264583" /><polygon
         points="20,30 65,25 70,85 25,90 "
         fill="#fff3e0"
         stroke="#b0bec5"
         stroke-width="0.8"
         id="polygon2"
         transform="matrix(0.26458333,0,0,0.26458333,38.89375,95.514584)" /><polygon
         points="65,25 115,28 118,85 70,85 "
         fill="#fbe9e7"
         stroke="#b0bec5"
         stroke-width="0.8"
         id="polygon3"
         transform="matrix(0.26458333,0,0,0.26458333,38.89375,95.514584)" /><polygon
         points="140,28 195,22 200,85 145,88 "
         fill="#fff3e0"
         stroke="#b0bec5"
         stroke-width="0.8"
         id="polygon4"
         transform="matrix(0.26458333,0,0,0.26458333,38.89375,95.514584)" /><polygon
         points="25,90 70,85 75,150 30,155 "
         fill="#fbe9e7"
         stroke="#b0bec5"
         stroke-width="0.8"
         id="polygon5"
         transform="matrix(0.26458333,0,0,0.26458333,38.89375,95.514584)" /><polygon
         points="70,85 118,85 122,150 75,150 "
         fill="#fff3e0"
         stroke="#b0bec5"
         stroke-width="0.8"
         id="polygon6"
         transform="matrix(0.26458333,0,0,0.26458333,38.89375,95.514584)" /><polygon
         points="145,88 200,85 205,150 150,152 "
         fill="#fbe9e7"
         stroke="#b0bec5"
         stroke-width="0.8"
         id="polygon7"
         transform="matrix(0.26458333,0,0,0.26458333,38.89375,95.514584)" /><polygon
         points="30,155 75,150 78,210 35,213 "
         fill="#fff3e0"
         stroke="#b0bec5"
         stroke-width="0.8"
         id="polygon8"
         transform="matrix(0.26458333,0,0,0.26458333,38.89375,95.514584)" /><polygon
         points="75,150 122,150 125,210 78,210 "
         fill="#fbe9e7"
         stroke="#b0bec5"
         stroke-width="0.8"
         id="polygon9"
         transform="matrix(0.26458333,0,0,0.26458333,38.89375,95.514584)" /><polygon
         points="150,152 205,150 208,210 153,213 "
         fill="#fff3e0"
         stroke="#b0bec5"
         stroke-width="0.8"
         id="polygon10"
         transform="matrix(0.26458333,0,0,0.26458333,38.89375,95.514584)" /><path
         d="m 49.739366,102.12566 c -1.323933,7.52086 1.323932,13.78823 -0.794359,21.30909 -2.118293,7.52085 1.588719,15.0417 -0.529574,25.06951 h 7.414022 c 2.118293,-10.02781 -1.588719,-17.54866 0.529574,-25.06951 2.118291,-7.52086 -0.529574,-13.78823 0.794359,-21.30909 z"
         fill="#ff6d00"
         fill-opacity="0.12"
         stroke="#ff6d00"
         stroke-width="0.257644"
         stroke-dasharray="4, 3"
         opacity="0.6"
         id="path10" /><path
         d="m 53.454349,102.11997 c -1.338965,7.47979 1.338965,13.71295 -0.803379,21.19275 -2.142343,7.4798 1.606758,14.95959 -0.535586,24.93265"
         fill="none"
         stroke="#546e7a"
         stroke-width="0.775185"
         stroke-linecap="round"
         id="path11" /><g
         transform="matrix(0.26458333,0,0,0.26458333,53.710416,116.15208)"
         id="g12"><path
           d="m 0,0 v 14 l 4,-3.5 3.5,6 2,-1 -3.5,-6 5,-1 z"
           fill="#ffffff"
           stroke="#1a1a1a"
           stroke-width="1"
           stroke-linejoin="round"
           id="path12" /></g><circle
         cx="53.710415"
         cy="116.15208"
         r="0.92604166"
         fill="#ff6d00"
         stroke="#ffffff"
         stroke-width="0.3175"
         id="circle12" /><text
         x="51.376163"
         y="151.93715"
         font-family="Arial, sans-serif"
         font-size="3.96875px"
         fill="#546e7a"
         text-anchor="middle"
         font-style="italic"
         id="text12"
         style="fill:#ff6600;stroke-width:0.264583">seleziona</text><text
         x="68.19635"
         y="128.27747"
         font-family="Arial, sans-serif"
         font-size="3.96875px"
         fill="#78909c"
         text-anchor="middle"
         font-weight="bold"
         id="text13"
         style="fill:#28170b;stroke-width:0.264583">OPPURE</text><polyline
         points="112,38 152,58 192,100 172,170"
         fill="none"
         stroke="#ff6d00"
         stroke-width="24"
         stroke-linecap="round"
         stroke-linejoin="round"
         stroke-opacity="0.12"
         stroke-dasharray="none"
         transform="matrix(0.26458333,0,0,0.26458333,38.89375,95.514584)"
         id="path13" /><polyline
         points="112,38 152,58 192,100 172,170"
         fill="none"
         stroke="#ff6d00"
         stroke-width="24"
         stroke-linecap="round"
         stroke-linejoin="round"
         stroke-opacity="0.6"
         stroke-dasharray="4,3"
         transform="matrix(0.26458333,0,0,0.26458333,38.89375,95.514584)"
         id="path13-outline" /><polyline
         points="112,38 152,58 192,100 172,170"
         fill="none"
         stroke="#ff6d00"
         stroke-width="2.5"
         stroke-linecap="round"
         stroke-linejoin="round"
         id="polyline13"
         transform="matrix(0.26458333,0,0,0.26458333,38.89375,95.514584)" /><line
         x1="84.402084"
         y1="140.49374"
         x2="78.052086"
         y2="147.90208"
         stroke="#ff6d00"
         stroke-width="0.396875"
         stroke-dasharray="5, 4"
         opacity="0.6"
         id="line13" /><circle
         cx="68.527084"
         cy="105.56875"
         r="2.1166666"
         fill="#ff6d00"
         stroke="#ffffff"
         stroke-width="0.396875"
         id="circle13" /><text
         x="68.527084"
         y="106.89167"
         font-family="Arial, sans-serif"
         font-size="3.70417px"
         fill="#ffffff"
         text-anchor="middle"
         font-weight="bold"
         id="text14"
         style="stroke-width:0.264583">1</text><circle
         cx="79.110413"
         cy="110.86042"
         r="2.1166666"
         fill="#ff6d00"
         stroke="#ffffff"
         stroke-width="0.396875"
         id="circle14" /><text
         x="79.110413"
         y="112.18333"
         font-family="Arial, sans-serif"
         font-size="3.70417px"
         fill="#ffffff"
         text-anchor="middle"
         font-weight="bold"
         id="text15"
         style="stroke-width:0.264583">2</text><circle
         cx="89.693748"
         cy="121.97292"
         r="2.1166666"
         fill="#ff6d00"
         stroke="#ffffff"
         stroke-width="0.396875"
         id="circle15" /><text
         x="89.693748"
         y="123.29584"
         font-family="Arial, sans-serif"
         font-size="3.70417px"
         fill="#ffffff"
         text-anchor="middle"
         font-weight="bold"
         id="text16"
         style="stroke-width:0.264583">3</text><circle
         cx="84.402084"
         cy="140.49374"
         r="2.1166666"
         fill="#ff6d00"
         stroke="#ffffff"
         stroke-width="0.396875"
         id="circle16" /><text
         x="84.402084"
         y="141.81667"
         font-family="Arial, sans-serif"
         font-size="3.70417px"
         fill="#ffffff"
         text-anchor="middle"
         font-weight="bold"
         id="text17"
         style="stroke-width:0.264583">4</text><g
         transform="matrix(0.26458333,0,0,0.26458333,78.052083,147.90208)"
         id="g17"><path
           d="m 0,0 v 14 l 4,-3.5 3.5,6 2,-1 -3.5,-6 5,-1 z"
           fill="#ffffff"
           stroke="#1a1a1a"
           stroke-width="1"
           stroke-linejoin="round"
           id="path17" /></g><text
         x="90.024475"
         y="105.23802"
         font-family="Arial, sans-serif"
         font-size="3.96875px"
         fill="#ff6d00"
         text-anchor="middle"
         font-style="italic"
         id="text19"
         style="stroke-width:0.264583">disegna</text></g></g></svg>
